<svg width="26" height="21" viewBox="0 0 26 21" fill="none" xmlns="http://www.w3.org/2000/svg">
<path d="M13.0436 3.09033H3.48565L6.10352e-05 0.00390625H13.0436V3.09033ZM6.10352e-05 8.84984H12.5209V11.9363H3.48565L6.10352e-05 8.84984ZM13.0436 20.9921H3.48565L6.10352e-05 17.907H13.0436V20.9921Z" fill="white"/>
<path d="M26.0034 18.4374L23.7037 20.9985L15.3831 13.6423L14.6363 12.9663L16.9411 10.4001L21.14 14.1303C21.8573 12.9316 22.1779 11.6916 22.1779 10.3525C22.1779 8.4133 21.4993 6.71879 20.1447 5.27022C18.803 3.8371 17.2192 3.11861 15.3908 3.10187L14.4109 3.09157V0.00515158L15.3844 0V0.00643652H15.3883C16.9836 0.00643652 18.4502 0.301301 19.7855 0.89103C21.1207 1.48076 22.2229 2.26106 23.0908 3.22935C23.9586 4.19892 24.6321 5.3037 25.1098 6.54239C25.5875 7.78237 25.827 9.06097 25.827 10.3808C25.827 12.6792 25.1664 14.6943 23.8106 16.4931L26.0034 18.4361V18.4374Z" fill="white"/>
<path d="M19.3979 20.2696C18.1785 20.7499 16.8497 20.9932 15.4204 20.9984L14.4148 20.9945L14.4109 17.9094L15.378 17.9055L15.3805 18.109V17.9223L15.3792 17.9042C15.7951 17.9004 16.1982 17.8605 16.5896 17.7832L19.3992 20.2709L19.3979 20.2696Z" fill="white"/>
</svg>
